<?xml version="1.0" standalone="no"?>
<!DOCTYPE svg PUBLIC "-//W3C//DTD SVG 20010904//EN"
 "http://www.w3.org/TR/2001/REC-SVG-20010904/DTD/svg10.dtd">
<svg version="1.0" xmlns="http://www.w3.org/2000/svg"
 width="256.000000pt" height="256.000000pt" viewBox="0 0 256.000000 256.000000"
 preserveAspectRatio="xMidYMid meet">

<g transform="translate(0.000000,256.000000) scale(0.100000,-0.100000)"
fill="#000000" stroke="none">
<path d="M2135 1824 c-209 -106 -383 -195 -386 -196 -7 -3 26 -246 34 -254 4
-4 43 29 148 124 l26 23 102 -47 c56 -26 103 -45 104 -43 6 8 356 589 354 588
-1 -1 -173 -89 -382 -195z"/>
<path d="M332 1460 c-36 -15 -55 -73 -50 -157 2 -40 2 -73 0 -73 -1 0 -19 11
-40 25 -21 14 -59 28 -84 31 -41 6 -49 3 -72 -19 -79 -79 -6 -213 134 -247 76
-18 193 3 225 42 69 82 48 324 -33 388 -27 22 -45 24 -80 10z"/>
<path d="M765 1445 c-37 -36 -35 -97 5 -137 28 -27 36 -30 73 -25 82 11 114
93 61 156 -22 26 -33 31 -70 31 -34 0 -51 -6 -69 -25z"/>
<path d="M1188 1309 c-25 -14 -24 -65 1 -79 31 -16 49 -12 67 15 15 23 15 27
0 50 -17 26 -40 31 -68 14z"/>
<path d="M803 1243 c-15 -6 -17 -49 -3 -58 33 -20 65 26 38 53 -13 13 -16 13
-35 5z"/>
<path d="M1567 1083 c-13 -13 -7 -51 9 -57 20 -8 44 11 44 34 0 23 -37 39 -53
23z"/>
<path d="M490 1014 c-23 -27 -1 -68 38 -72 26 -3 34 1 43 21 16 35 -3 67 -40
67 -16 0 -34 -7 -41 -16z"/>
<path d="M603 933 c-18 -7 -16 -50 2 -57 27 -10 46 5 43 33 -3 25 -20 35 -45
24z"/>
<path d="M1352 858 c-18 -18 -15 -36 7 -48 15 -7 23 -6 35 6 9 8 16 19 16 23
0 11 -23 31 -35 31 -6 0 -16 -5 -23 -12z"/>
<path d="M1212 798 c-17 -17 -15 -54 4 -93 18 -39 33 -47 74 -38 58 11 89 81
48 107 -14 8 -22 6 -39 -11 l-22 -22 -16 32 c-18 35 -32 42 -49 25z"/>
<path d="M930 791 c0 -5 -10 -11 -22 -13 -34 -5 -30 -40 6 -57 27 -12 31 -12
43 5 18 25 13 68 -9 72 -10 2 -18 -1 -18 -7z"/>
<path d="M977 642 c-22 -24 -21 -45 1 -65 23 -21 46 -22 66 -1 30 30 9 84 -33
84 -10 0 -25 -8 -34 -18z"/>
<path d="M840 586 c-27 -33 18 -72 48 -42 13 13 14 20 6 34 -15 23 -38 26 -54
8z"/>
</g>
</svg>
